<?xml version="1.0" standalone="no"?>
<!DOCTYPE svg PUBLIC "-//W3C//DTD SVG 20010904//EN"
 "http://www.w3.org/TR/2001/REC-SVG-20010904/DTD/svg10.dtd">
<svg version="1.0" xmlns="http://www.w3.org/2000/svg"
 width="1024.000000pt" height="1024.000000pt" viewBox="0 0 1024.000000 1024.000000"
 preserveAspectRatio="xMidYMid meet">
<metadata>
Created by potrace 1.14, written by Peter Selinger 2001-2017
</metadata>
<g transform="translate(0.000000,1024.000000) scale(0.100000,-0.100000)"
fill="#000000" stroke="none">
<path d="M4889 7416 c-220 -97 -586 -322 -799 -493 -111 -89 -345 -322 -449
-448 -410 -495 -631 -1102 -631 -1734 0 -596 261 -1212 686 -1621 263 -253
582 -435 916 -525 129 -35 188 -34 230 4 l33 29 1 209 c1 221 5 278 34 438 59
326 192 685 365 985 21 36 45 79 53 95 20 39 162 253 252 380 243 344 433 666
495 842 13 37 35 100 50 138 29 80 65 217 90 352 23 124 39 146 129 187 102
47 126 88 91 157 -24 46 -181 223 -306 345 -236 229 -459 392 -757 554 -275
150 -348 166 -483 106z m310 -388 c60 -29 117 -88 130 -135 13 -46 5 -63 -94
-194 -213 -283 -396 -680 -494 -1074 -37 -149 -80 -380 -90 -480 -38 -385 -11
-864 58 -1021 l22 -48 -55 -106 c-69 -133 -108 -231 -136 -345 -12 -49 -24
-92 -25 -93 -2 -2 -19 29 -38 70 -75 157 -151 456 -183 728 -22 179 -25 624
-6 775 84 655 297 1259 604 1708 159 234 204 265 307 215z"/>
<path d="M6566 6009 c-28 -22 -44 -68 -71 -209 -32 -159 -111 -382 -200 -558
-90 -178 -175 -317 -381 -615 -325 -472 -455 -713 -574 -1067 -83 -246 -120
-474 -120 -748 0 -172 9 -204 63 -227 52 -21 166 4 352 77 415 165 724 415
1010 818 54 76 198 364 245 489 151 399 180 924 76 1364 -48 198 -167 509
-238 620 -48 75 -110 97 -162 56z"/>
</g>
</svg>
