<?xml version="1.0" standalone="no"?>
<!DOCTYPE svg PUBLIC "-//W3C//DTD SVG 20010904//EN"
 "http://www.w3.org/TR/2001/REC-SVG-20010904/DTD/svg10.dtd">
<svg version="1.0" xmlns="http://www.w3.org/2000/svg"
 width="1024.000000pt" height="1024.000000pt" viewBox="0 0 1024.000000 1024.000000"
 preserveAspectRatio="xMidYMid meet">
<metadata>
Created by potrace 1.14, written by Peter Selinger 2001-2017
</metadata>
<g transform="translate(0.000000,1024.000000) scale(0.100000,-0.100000)"
fill="#000000" stroke="none">
<path d="M4910 8021 c-8 -6 -18 -7 -22 -5 -4 3 -8 0 -8 -6 0 -6 -4 -8 -10 -5
-5 3 -10 2 -10 -3 0 -5 -20 -15 -45 -22 -25 -7 -45 -17 -45 -21 0 -5 -3 -8 -7
-7 -11 2 -87 -35 -91 -45 -2 -4 -7 -5 -12 -2 -4 3 -13 -2 -20 -10 -7 -8 -20
-15 -30 -15 -10 0 -21 -7 -24 -16 -3 -8 -10 -12 -16 -9 -5 3 -10 1 -10 -5 0
-7 -7 -10 -15 -6 -8 3 -15 2 -15 -3 0 -5 -13 -14 -30 -21 -16 -7 -30 -16 -30
-21 0 -5 -6 -9 -14 -9 -8 0 -37 -16 -65 -35 -28 -19 -55 -35 -61 -35 -5 0 -10
-5 -10 -12 0 -6 -3 -9 -6 -5 -4 3 -29 -11 -58 -32 -28 -20 -66 -46 -83 -56
-18 -11 -33 -22 -33 -25 0 -4 -16 -12 -35 -20 -19 -8 -35 -18 -35 -22 0 -5
-11 -13 -25 -18 -14 -5 -25 -14 -25 -20 0 -6 -4 -9 -9 -6 -5 4 -11 3 -13 -1
-4 -10 -85 -73 -92 -73 -3 0 -14 -8 -25 -17 -10 -10 -35 -31 -56 -48 -54 -43
-139 -120 -219 -197 -38 -38 -72 -68 -75 -69 -5 -1 -67 -68 -183 -201 -21 -24
-51 -57 -68 -73 -16 -17 -30 -35 -30 -42 0 -6 -8 -18 -18 -25 -15 -11 -29 -29
-67 -86 -5 -8 -19 -25 -30 -37 -35 -40 -46 -55 -40 -55 3 0 -13 -25 -35 -55
-22 -30 -38 -55 -34 -55 4 0 -3 -9 -15 -19 -12 -11 -23 -23 -23 -28 -1 -4 -12
-26 -27 -48 -14 -22 -26 -42 -27 -45 -4 -18 -42 -89 -45 -86 -2 3 -22 -32 -44
-77 -22 -45 -44 -85 -50 -89 -5 -4 -6 -8 -1 -8 4 0 1 -10 -7 -23 -8 -13 -21
-42 -28 -65 -7 -23 -16 -42 -21 -42 -5 0 -8 -6 -7 -12 1 -7 -5 -29 -13 -48
-20 -46 -31 -74 -32 -80 -1 -3 -5 -11 -9 -17 -5 -7 -5 -17 -2 -23 3 -5 2 -10
-4 -10 -5 0 -12 -18 -16 -40 -4 -22 -11 -40 -16 -40 -6 0 -7 -5 -4 -10 4 -6 2
-16 -3 -23 -5 -7 -13 -31 -17 -54 -4 -24 -11 -45 -16 -49 -5 -3 -7 -10 -3 -15
3 -5 0 -16 -6 -24 -7 -8 -9 -15 -5 -15 4 0 2 -7 -5 -15 -7 -8 -10 -24 -7 -35
3 -11 1 -20 -3 -20 -4 0 -11 -27 -15 -60 -4 -33 -10 -62 -15 -65 -4 -2 -6 -20
-4 -40 1 -19 -2 -35 -6 -35 -5 0 -8 -20 -7 -45 1 -25 -1 -45 -5 -45 -5 0 -8
-27 -8 -59 0 -33 -4 -62 -8 -65 -4 -2 -6 -39 -5 -80 2 -42 0 -76 -4 -76 -5 0
-8 -83 -8 -185 0 -102 3 -185 7 -185 3 0 7 -24 7 -52 0 -75 13 -188 20 -188 3
0 7 -15 8 -32 2 -48 9 -91 17 -109 4 -10 6 -23 5 -30 -1 -8 1 -21 4 -29 9 -20
28 -101 29 -120 0 -8 5 -20 10 -27 5 -7 7 -17 3 -23 -3 -5 -2 -10 3 -10 5 0
15 -25 22 -55 7 -30 17 -55 23 -55 5 0 7 -7 4 -15 -4 -8 -2 -17 2 -20 5 -2 12
-21 15 -40 4 -19 11 -35 17 -35 5 0 9 -6 7 -12 -1 -7 6 -27 15 -45 9 -18 17
-39 17 -48 0 -8 4 -15 10 -15 5 0 9 -3 8 -7 0 -5 6 -25 15 -45 10 -21 17 -42
17 -48 0 -5 5 -10 11 -10 5 0 7 -4 4 -10 -3 -5 -1 -15 5 -22 13 -15 39 -63 69
-125 11 -24 25 -43 30 -43 5 0 12 -14 16 -31 4 -17 13 -33 21 -36 8 -3 11 -9
8 -14 -3 -5 0 -9 6 -9 6 0 15 -10 20 -22 15 -34 47 -82 78 -114 7 -8 11 -14 7
-14 -4 0 0 -7 7 -15 7 -8 23 -27 35 -43 13 -15 38 -46 58 -68 19 -23 35 -44
35 -46 0 -8 213 -219 259 -257 25 -20 59 -49 75 -64 17 -16 43 -36 59 -45 15
-9 27 -20 27 -24 0 -4 5 -8 11 -8 7 0 22 -11 35 -26 13 -14 24 -22 24 -18 0 3
15 -5 34 -20 19 -14 40 -26 46 -26 6 0 13 -7 16 -15 4 -8 12 -15 19 -15 6 0
30 -12 51 -27 22 -16 71 -44 109 -63 39 -19 72 -38 73 -43 2 -4 8 -5 13 -1 5
3 16 -2 25 -10 8 -9 22 -16 30 -16 8 0 14 -5 14 -11 0 -5 4 -7 10 -4 5 3 22 0
37 -8 49 -26 88 -41 101 -38 6 1 12 -3 12 -9 0 -6 4 -8 10 -5 6 3 10 1 10 -5
0 -7 7 -10 15 -7 8 4 17 2 20 -3 4 -6 12 -10 20 -10 8 0 26 -5 42 -12 30 -12
46 -17 78 -23 34 -7 109 -26 125 -32 24 -10 150 -10 150 -1 0 4 6 8 13 8 7 0
26 14 43 31 l29 30 -1 132 c0 73 -1 155 -2 182 -1 28 2 109 8 180 5 72 10 147
11 168 1 20 6 37 11 37 5 0 7 16 4 34 -3 19 -2 38 3 41 5 3 13 34 16 70 4 36
11 65 15 65 4 0 6 11 5 25 -2 14 1 27 6 31 5 3 7 10 3 15 -3 5 0 16 6 24 7 8
10 24 7 35 -3 11 -2 20 3 20 4 0 11 15 14 32 11 58 12 63 24 91 7 15 11 31 10
35 -1 4 5 21 12 37 7 17 12 34 11 39 -1 4 4 14 10 22 6 8 8 14 4 14 -4 0 -2 7
5 15 7 8 9 15 5 15 -4 0 -3 6 3 13 5 6 13 27 17 45 3 17 11 32 16 32 6 0 9 6
8 13 -2 12 22 75 42 110 5 10 7 22 4 27 -4 6 -1 10 4 10 6 0 11 4 11 9 0 5 5
22 12 38 6 15 12 30 13 33 6 19 51 106 58 108 4 2 5 8 1 13 -3 5 -1 9 4 9 5 0
15 18 22 40 7 22 17 40 22 40 4 0 8 6 8 14 0 7 11 29 24 49 13 19 22 38 18 41
-3 3 0 6 6 6 7 0 12 6 12 14 0 8 7 22 16 30 8 9 12 16 8 16 -4 0 1 9 11 20 10
11 14 20 9 20 -5 0 -4 4 2 8 7 4 19 23 28 42 30 63 41 80 48 80 5 0 8 6 8 14
0 8 3 16 8 18 4 2 25 30 47 63 22 33 44 63 50 67 7 5 7 8 0 8 -5 0 -3 6 6 13
16 12 50 71 48 83 0 4 6 11 15 16 9 5 16 15 16 23 0 7 3 15 8 17 12 5 72 85
72 96 0 6 9 14 21 17 11 4 18 13 15 20 -2 7 1 16 8 18 7 3 21 22 31 44 22 46
55 95 73 106 6 4 12 14 12 21 0 7 18 35 40 62 22 27 38 51 37 54 -2 5 6 16 39
53 6 7 11 14 11 17 0 12 47 96 58 105 7 5 19 25 26 43 8 17 17 32 20 32 4 0
10 11 13 24 3 14 12 31 20 38 8 8 44 77 82 154 37 76 71 141 76 142 4 2 5 8 2
13 -3 6 0 16 6 24 6 8 9 19 5 25 -3 5 -2 10 4 10 5 0 12 18 16 40 4 22 11 40
16 40 6 0 8 4 4 9 -3 5 -1 12 5 16 6 4 8 11 5 16 -4 5 -1 9 4 9 6 0 11 10 11
23 0 13 6 32 14 42 8 11 12 25 9 32 -3 7 0 13 6 13 7 0 11 6 10 13 -1 6 1 19
4 27 3 8 11 38 17 65 13 59 18 80 20 80 3 0 9 36 14 78 3 21 9 43 13 50 4 7 6
24 4 39 -1 16 2 28 7 28 5 0 8 14 6 30 -2 17 1 30 6 30 6 0 8 11 6 25 -3 14
-1 25 4 25 6 0 12 11 16 24 8 33 39 58 106 85 77 31 135 70 142 95 10 36 6 86
-6 86 -6 0 -8 3 -5 7 4 3 2 12 -4 20 -6 7 -9 13 -6 13 7 0 -31 45 -60 73 -13
11 -23 26 -23 32 0 6 -18 27 -40 46 -22 19 -40 39 -40 44 0 12 -333 345 -344
345 -4 0 -24 18 -45 40 -20 22 -42 40 -48 40 -6 0 -21 13 -34 30 -13 16 -28
30 -33 30 -4 0 -23 12 -41 28 -18 15 -45 36 -59 47 -15 11 -36 29 -46 39 -11
11 -20 16 -20 12 0 -4 -6 -2 -12 4 -40 33 -89 67 -121 85 -20 11 -37 23 -37
27 0 5 -6 8 -14 8 -7 0 -19 6 -25 13 -6 8 -31 24 -56 37 -25 13 -45 27 -45 32
0 4 -6 8 -14 8 -7 0 -25 9 -38 20 -14 10 -28 16 -32 13 -3 -3 -6 -2 -6 3 0 6
-16 16 -35 23 -19 7 -35 17 -35 23 0 6 -3 8 -6 5 -4 -4 -19 2 -33 12 -26 17
-62 34 -70 31 -2 -1 -7 2 -10 7 -8 11 -184 95 -206 98 -5 1 -23 6 -38 13 -33
14 -156 16 -177 3z m288 -502 c6 -1 12 -7 12 -12 0 -6 3 -8 6 -4 3 3 11 2 18
-4 6 -5 34 -27 62 -48 29 -22 58 -53 65 -70 8 -17 17 -31 21 -31 4 0 5 -7 2
-15 -4 -8 -1 -22 5 -29 8 -10 9 -16 1 -21 -5 -3 -10 -15 -10 -26 0 -10 -16
-36 -35 -58 -19 -21 -35 -41 -35 -44 0 -3 -10 -17 -22 -31 -41 -46 -53 -61
-66 -87 -7 -14 -26 -39 -42 -56 -16 -17 -26 -34 -22 -38 4 -4 -2 -13 -12 -21
-11 -7 -17 -17 -13 -20 3 -3 2 -11 -3 -18 -49 -59 -96 -136 -85 -136 3 0 -3
-10 -15 -22 -11 -12 -20 -28 -20 -35 0 -7 -4 -13 -10 -13 -5 0 -9 -3 -8 -7 3
-13 -25 -63 -34 -63 -5 0 -7 -4 -4 -9 3 -5 -10 -37 -29 -70 -19 -34 -35 -65
-36 -69 -2 -8 -12 -35 -30 -77 -7 -16 -13 -32 -14 -35 -2 -6 -19 -50 -38 -95
-6 -16 -12 -32 -13 -35 0 -3 -6 -18 -12 -33 -7 -16 -12 -33 -12 -38 0 -5 -4
-9 -10 -9 -5 0 -7 -6 -4 -14 3 -8 1 -17 -5 -20 -6 -4 -8 -13 -4 -21 3 -8 0
-15 -7 -15 -7 0 -10 -7 -7 -15 4 -8 2 -17 -3 -20 -5 -3 -12 -26 -16 -50 -3
-25 -10 -45 -16 -45 -5 0 -8 -6 -7 -12 1 -7 -3 -25 -9 -39 -5 -14 -13 -47 -17
-72 -4 -26 -11 -47 -15 -47 -4 0 -8 -10 -8 -22 -1 -31 -7 -61 -14 -73 -3 -6
-9 -35 -13 -65 -4 -30 -11 -60 -15 -65 -5 -6 -7 -23 -6 -38 2 -15 -1 -27 -7
-27 -5 0 -7 -9 -4 -20 3 -11 2 -22 -3 -25 -4 -3 -11 -28 -15 -57 -4 -29 -9
-62 -12 -73 -34 -149 -52 -647 -33 -910 5 -66 9 -144 9 -172 0 -29 4 -53 9
-53 5 0 8 -16 7 -36 -1 -19 2 -37 7 -40 4 -3 8 -17 8 -32 -1 -28 7 -76 17
-102 4 -8 5 -21 4 -27 -1 -7 3 -13 9 -13 6 0 10 -6 8 -12 -1 -7 6 -27 15 -45
22 -42 21 -69 -3 -93 -11 -11 -20 -22 -19 -25 1 -11 -85 -180 -95 -187 -6 -4
-7 -8 -2 -8 5 0 2 -7 -5 -17 -8 -9 -13 -19 -13 -22 2 -7 -4 -25 -24 -71 -8
-19 -23 -64 -34 -100 -26 -92 -29 -102 -33 -130 -2 -14 -8 -38 -13 -55 -8 -29
-9 -29 -16 -7 -4 12 -12 22 -17 22 -5 0 -8 3 -8 8 3 13 -25 72 -34 72 -5 0 -5
9 -2 20 4 11 2 20 -4 20 -6 0 -16 20 -22 45 -6 25 -15 48 -20 50 -4 3 -6 12
-2 20 3 8 0 15 -7 15 -7 0 -10 7 -7 15 4 8 2 17 -3 20 -5 3 -12 26 -16 50 -3
25 -11 45 -16 45 -6 0 -8 7 -5 15 4 8 2 17 -3 20 -5 3 -7 14 -5 25 2 11 0 20
-4 20 -5 0 -11 23 -14 51 -4 28 -10 56 -15 63 -5 6 -7 23 -5 39 2 16 -1 27 -8
27 -7 0 -10 12 -7 30 3 16 1 30 -3 30 -4 0 -10 30 -14 68 -3 37 -9 74 -12 82
-3 8 -7 35 -8 60 -2 25 -4 45 -5 45 -2 0 -5 25 -7 55 -2 30 -6 78 -8 105 -13
162 -23 585 -13 585 5 0 15 112 20 243 1 26 5 47 9 47 4 0 8 17 7 38 0 20 8
78 17 127 8 50 16 105 17 123 0 17 4 32 8 32 5 0 7 11 5 25 -1 14 2 25 7 25 5
0 8 6 7 13 -3 15 11 88 19 102 4 6 7 21 8 35 1 14 3 26 4 28 1 1 3 10 5 20 1
9 4 24 7 32 5 14 25 94 33 130 2 8 4 16 5 18 3 2 4 6 14 47 4 17 10 37 12 45
3 8 5 15 4 15 -1 0 4 14 10 30 13 32 14 36 32 108 6 26 15 47 19 47 5 0 6 7 3
15 -4 8 -1 22 6 30 7 8 9 15 6 15 -4 0 0 7 8 16 9 8 16 23 16 32 0 10 7 27 15
39 9 12 15 26 14 30 -1 4 3 21 9 36 7 16 12 35 12 43 0 8 4 14 10 14 5 0 9 3
8 8 -1 4 4 18 10 32 19 41 41 100 41 107 -1 3 3 9 8 12 4 3 14 24 22 46 8 22
17 42 20 45 9 8 45 84 43 93 -1 4 3 7 10 7 6 0 9 3 5 6 -3 3 5 23 18 44 13 21
21 40 18 44 -3 3 2 8 11 12 9 3 16 12 16 19 0 7 9 24 21 39 11 14 17 26 13 26
-4 0 0 8 8 18 9 9 18 26 22 37 3 11 19 34 34 50 16 17 27 36 24 43 -2 6 1 12
8 12 6 0 8 5 5 10 -3 6 1 13 9 16 9 3 16 12 16 18 0 7 11 23 24 35 14 13 30
36 36 52 7 16 16 29 21 29 5 0 9 5 9 11 0 7 11 22 25 35 14 13 25 27 25 32 0
5 28 35 61 67 65 60 69 61 177 44z"/>
<path d="M6957 6248 c-10 -5 -17 -7 -17 -4 0 3 -11 -6 -24 -19 -26 -26 -46
-75 -46 -111 0 -13 -4 -24 -10 -24 -5 0 -7 -13 -5 -30 2 -16 0 -30 -5 -30 -4
0 -7 -13 -6 -30 1 -16 -1 -30 -6 -30 -4 0 -8 -13 -8 -28 0 -16 -3 -32 -7 -35
-3 -4 -8 -19 -10 -35 -5 -48 -6 -52 -15 -52 -5 0 -8 -6 -7 -12 3 -18 -21 -100
-33 -115 -5 -7 -7 -17 -4 -22 4 -5 2 -12 -3 -15 -5 -3 -12 -22 -15 -41 -4 -19
-11 -35 -16 -35 -4 0 -6 -10 -2 -22 3 -13 1 -19 -5 -15 -7 5 -9 0 -6 -13 3
-11 1 -20 -5 -20 -5 0 -15 -20 -21 -45 -6 -25 -16 -45 -21 -45 -6 0 -9 -4 -7
-8 2 -10 -34 -84 -46 -93 -5 -3 -9 -10 -10 -15 0 -5 -10 -29 -21 -54 -11 -25
-19 -48 -18 -52 1 -5 -2 -8 -7 -8 -5 0 -15 -16 -21 -35 -6 -19 -16 -35 -22
-35 -6 0 -8 -3 -5 -6 3 -4 -3 -18 -13 -32 -11 -13 -20 -30 -20 -37 0 -7 -7
-16 -16 -19 -9 -4 -14 -9 -11 -13 4 -3 -9 -28 -28 -55 -19 -26 -35 -52 -35
-57 0 -5 -7 -12 -16 -15 -8 -3 -12 -10 -9 -16 3 -6 0 -13 -9 -16 -8 -3 -18
-18 -21 -34 -3 -16 -13 -31 -21 -34 -9 -3 -12 -10 -9 -16 3 -5 1 -10 -5 -10
-6 0 -15 -11 -20 -25 -5 -14 -15 -25 -21 -25 -7 0 -10 -3 -6 -6 5 -6 -66 -112
-99 -146 -9 -9 -13 -21 -9 -27 3 -6 2 -11 -3 -11 -6 0 -24 -21 -41 -47 -50
-77 -54 -83 -88 -127 -18 -22 -33 -46 -33 -53 0 -7 -9 -17 -20 -23 -11 -6 -20
-17 -20 -25 0 -8 -4 -15 -10 -15 -5 0 -10 -9 -10 -20 0 -11 -4 -20 -9 -20 -5
0 -17 -17 -26 -37 -10 -21 -21 -40 -25 -43 -3 -3 -17 -23 -30 -45 -13 -22 -30
-46 -37 -53 -7 -7 -13 -20 -13 -27 0 -8 -6 -18 -14 -22 -8 -4 -16 -12 -17 -18
-3 -17 -23 -60 -30 -65 -10 -8 -53 -94 -51 -102 1 -5 -2 -8 -8 -8 -9 0 -54
-89 -52 -102 1 -5 -2 -8 -7 -8 -4 0 -14 -20 -21 -45 -7 -25 -16 -45 -19 -45
-4 0 -15 -24 -26 -52 -10 -29 -22 -59 -28 -65 -5 -7 -6 -13 -2 -13 3 0 -3 -15
-14 -34 -12 -18 -21 -43 -21 -55 0 -14 -4 -20 -12 -15 -8 5 -9 2 -5 -9 3 -9 2
-19 -2 -21 -5 -3 -14 -27 -21 -53 -7 -27 -16 -52 -19 -58 -3 -5 -6 -12 -6 -15
-2 -15 -29 -86 -35 -94 -5 -5 -6 -14 -4 -21 3 -7 1 -16 -4 -19 -6 -3 -8 -15
-5 -26 3 -11 1 -20 -5 -20 -6 0 -14 -25 -17 -55 -4 -30 -11 -58 -16 -60 -4 -3
-6 -12 -3 -20 3 -8 2 -20 -3 -27 -4 -7 -8 -26 -9 -43 0 -16 -4 -37 -8 -45 -20
-47 -35 -233 -39 -490 -3 -249 2 -268 78 -304 31 -15 52 -20 56 -14 3 5 9 9
13 8 16 -6 126 12 126 20 0 4 9 6 20 3 11 -3 20 -1 20 5 0 6 9 9 20 7 11 -2
22 0 25 6 4 5 13 9 21 9 8 0 31 7 52 17 20 9 39 17 42 17 3 1 19 7 35 13 50
21 90 36 95 38 21 6 66 31 72 40 4 5 8 7 8 3 0 -4 28 7 63 25 34 17 65 30 70
29 4 -1 7 3 7 8 0 6 7 10 15 10 8 0 24 9 35 20 11 11 20 17 20 14 0 -3 13 4
29 15 16 12 32 21 36 21 10 0 120 76 134 94 7 9 17 13 22 10 5 -3 12 2 15 10
3 9 10 16 15 16 11 0 50 32 106 86 24 23 44 39 46 37 5 -5 227 218 227 227 0
4 18 24 39 43 22 19 37 38 34 41 -4 3 6 15 20 27 15 11 27 26 27 33 0 6 9 18
20 26 11 8 20 19 20 25 0 6 8 18 18 26 28 26 61 72 57 80 -3 4 2 9 10 13 8 3
15 12 15 20 0 8 6 19 14 23 18 10 78 122 71 133 -3 5 4 11 15 15 11 4 18 10
15 15 -3 5 -1 11 5 15 6 4 8 11 5 16 -4 5 -2 9 3 9 8 0 39 63 47 95 2 6 14 30
29 55 14 25 30 57 37 73 6 15 15 27 20 27 4 0 6 6 3 14 -3 8 0 17 6 21 6 4 8
16 4 27 -4 13 -2 18 4 14 5 -3 13 10 16 29 4 19 11 35 16 35 5 0 7 6 4 14 -3
8 0 17 5 21 6 3 9 11 6 16 -4 5 -2 9 3 9 5 0 15 26 22 58 7 31 17 62 22 69 5
7 7 17 3 23 -4 6 -2 16 3 23 5 7 9 19 9 27 1 8 6 35 13 60 7 25 12 55 12 68 0
12 4 22 9 22 5 0 7 12 5 26 -3 14 -1 35 4 47 13 28 31 194 31 275 0 34 3 62 7
62 4 0 8 79 7 175 0 96 -3 175 -7 175 -3 0 -7 37 -7 83 0 45 -5 107 -11 137
-6 30 -10 72 -10 93 1 20 -3 37 -7 37 -4 0 -9 12 -10 28 -3 33 -8 62 -16 82
-7 19 -17 79 -18 103 0 9 -4 17 -9 17 -5 0 -7 9 -5 20 2 11 0 22 -5 25 -5 3
-14 30 -21 60 -7 30 -15 55 -19 55 -6 0 -8 8 -12 50 -1 11 -6 20 -10 20 -4 0
-8 6 -8 14 0 8 -5 27 -12 43 -6 15 -10 34 -9 41 1 6 -3 12 -10 12 -6 0 -9 7
-5 15 3 8 1 15 -4 15 -6 0 -10 4 -10 9 0 5 -5 22 -12 38 -6 15 -12 31 -13 36
-2 4 -4 10 -5 15 -1 4 -2 10 -1 15 0 4 -3 7 -7 7 -9 0 -37 70 -34 83 1 4 -2 7
-6 7 -5 0 -15 18 -22 40 -7 22 -17 40 -22 40 -5 0 -7 4 -4 9 3 5 -1 11 -9 15
-8 3 -15 11 -15 19 0 19 -65 87 -84 87 -9 0 -16 3 -16 8 0 11 -54 11 -73 0z"/>
</g>
</svg>
